<?xml version="1.0" encoding="utf-8"?>
<!-- Generator: Adobe Illustrator 19.2.0, SVG Export Plug-In . SVG Version: 6.00 Build 0)  -->
<svg version="1.1" id="Lager_1" xmlns="http://www.w3.org/2000/svg" xmlns:xlink="http://www.w3.org/1999/xlink" x="0px" y="0px"
	 viewBox="0 0 77.4 73.7" style="enable-background:new 0 0 77.4 73.7;" xml:space="preserve">
<style type="text/css">
	.st0{fill:#EFCA2E;}
	.st1{fill:none;stroke:#EFCA2E;stroke-width:7;stroke-miterlimit:10;}
</style>
<title>star</title>
<g id="Layer_2">
	<g>
		<g id="objects_6_">
			<g>
				<path class="st0" d="M16.7,67.7c-0.6,2.7,0.8,3.7,3.1,2.3l14.6-9c2.3-1.4,6.2-1.4,8.5,0l14.6,9c2.3,1.4,3.7,0.4,3.1-2.3l-4-16.7
					c-0.6-2.7,0.5-6.3,2.6-8.1l13-11.1c2.1-1.8,1.6-3.4-1.2-3.6l-17.1-1.4c-2.7-0.2-5.8-2.5-6.9-5L40.6,5.9c-1.1-2.5-2.8-2.5-3.8,0
					l-6.6,15.8c-1.1,2.5-4.2,4.8-6.9,5L6.2,28.1C3.5,28.4,2.9,30,5,31.8l13,11.1c2.1,1.8,3.3,5.4,2.6,8.1L16.7,67.7z"/>
				<path class="st1" d="M16.7,67.7c-0.6,2.7,0.8,3.7,3.1,2.3l14.6-9c2.3-1.4,6.2-1.4,8.5,0l14.6,9c2.3,1.4,3.7,0.4,3.1-2.3l-4-16.7
					c-0.6-2.7,0.5-6.3,2.6-8.1l13-11.1c2.1-1.8,1.6-3.4-1.2-3.6l-17.1-1.4c-2.7-0.2-5.8-2.5-6.9-5L40.6,5.9c-1.1-2.5-2.8-2.5-3.8,0
					l-6.6,15.8c-1.1,2.5-4.2,4.8-6.9,5L6.2,28.1C3.5,28.4,2.9,30,5,31.8l13,11.1c2.1,1.8,3.3,5.4,2.6,8.1L16.7,67.7z"/>
			</g>
		</g>
	</g>
</g>
</svg>
